<svg version="1.2" xmlns="http://www.w3.org/2000/svg" viewBox="0 0 2176 1952" width="2176" height="1952">
	<style>
		.s0 { fill: #f2efd8 } 
		.s1 { fill: #849638 } 
	</style>
	<g id="Background">
		<path id="Path 1" class="s0" d="m627.5 169.11c-7.15 0.46-21.1 1.54-31 2.4-9.9 0.86-25.2 2.46-34 3.54-8.8 1.09-20.5 2.67-26 3.52-5.5 0.84-17.2 3.12-26 5.06-8.8 1.94-20.05 4.65-25 6.03-4.95 1.39-15.98 4.99-24.5 8.01-8.52 3.03-19.1 7.18-23.5 9.23-4.4 2.04-14.75 7.47-23 12.07-8.25 4.59-19.73 11.51-25.5 15.39-5.77 3.88-15.9 11.42-22.5 16.76-6.6 5.34-17.45 15.26-24.12 22.05-6.66 6.78-15.88 16.86-20.5 22.4-4.61 5.55-12.25 15.9-16.98 23-4.73 7.11-11.03 17.2-14.01 22.43-2.98 5.23-7.52 13.77-10.1 19-2.58 5.23-6.23 13.1-8.1 17.5-1.88 4.4-6.14 16.32-9.47 26.5-3.34 10.17-7.03 23.23-8.22 29-1.18 5.77-2.41 10.95-2.73 11.5-0.32 0.55-0.73 1.9-0.9 3-0.18 1.1-0.5 3.35-0.72 5-0.21 1.65-0.64 3.67-0.94 4.5-0.3 0.82-1.05 4.87-1.67 9-0.61 4.12-1.33 9.3-1.59 11.5-0.27 2.2-0.76 5.12-1.09 6.5-0.33 1.37-0.76 3.62-0.94 5-0.18 1.37-0.58 5.2-0.89 8.5-0.3 3.3-0.77 7.12-1.03 8.5-0.27 1.37-0.72 6.55-1 11.5-0.29 4.95-0.76 11.7-1.04 15-0.28 3.3-0.75 11.4-1.04 18-0.29 6.6-0.67 13.35-0.84 15-0.17 1.65-0.62 14.7-1.01 29-0.38 14.3-0.72 78.42-0.74 142.5-0.03 64.08-0.02 167.8 0.01 230.5 0.04 62.7 0.08 178.12 0.09 256.5 0.01 78.37 0.25 146.33 0.54 151 0.28 4.67 0.77 13 1.08 18.5 0.31 5.5 0.76 14.28 1.01 19.5 0.24 5.22 0.73 12.87 1.07 17 0.35 4.12 0.69 10.54 0.75 14.25 0.07 3.71 0.34 6.75 0.62 6.75 0.28 0 0.58 2.14 0.67 4.75 0.1 2.61 0.9 9.92 1.79 16.25 0.89 6.33 1.8 12.4 2.04 13.5 0.23 1.1 0.72 4.25 1.07 7 0.36 2.75 0.81 6.12 1.01 7.5 0.19 1.37 1.03 6.1 1.87 10.5 0.83 4.4 1.94 9.8 2.47 12 0.52 2.2 1.4 5.8 1.96 8 0.55 2.2 1.21 5.12 1.47 6.5 0.25 1.37 0.76 3.85 1.14 5.5 0.37 1.65 1.29 5.03 2.05 7.5 0.75 2.47 2.56 8.55 4.02 13.5 1.46 4.95 3.05 9.9 3.53 11 0.48 1.1 2.05 5.37 3.5 9.5 1.45 4.12 3.42 9.3 4.38 11.5 0.95 2.2 2.1 4.9 2.55 6 0.44 1.1 0.89 2.22 0.98 2.5 0.1 0.28 1.82 3.87 3.82 8 2.01 4.12 5.03 9.97 6.71 13 1.69 3.03 4.9 8.65 7.15 12.5 2.25 3.85 6.13 10.15 8.63 14 2.49 3.85 7.72 11.26 11.61 16.46 3.9 5.21 12.03 14.62 18.08 20.91 6.05 6.3 15.27 15.26 20.5 19.92 5.23 4.66 12.94 10.99 17.14 14.09 4.2 3.09 8.47 6.18 9.5 6.87 1.02 0.69 4.11 2.67 6.86 4.4 2.75 1.73 6.57 4.04 8.5 5.13 1.93 1.09 6.76 3.72 10.75 5.85 3.99 2.13 13.44 6.51 21 9.73 7.56 3.23 20.73 8.14 29.25 10.91 8.52 2.77 18.88 5.95 23 7.07 4.13 1.11 12.23 2.93 18 4.02 5.77 1.1 17.92 3.14 27 4.54 9.08 1.4 23.7 3.21 32.5 4.04 8.8 0.83 19.15 1.75 23 2.05 3.85 0.31 9.25 0.77 12 1.03 2.75 0.25 11.98 0.74 20.5 1.07 8.52 0.33 15.73 0.75 16 0.92 0.27 0.17 12.2 0.65 26.5 1.06 14.3 0.41 208.48 0.78 431.5 0.83 223.03 0.06 414.95-0.19 426.5-0.54 11.55-0.35 27.75-0.73 36-0.85 8.25-0.12 22.88-0.82 32.5-1.56 9.63-0.73 23.35-1.83 30.5-2.43 7.15-0.61 17.5-1.56 23-2.13 5.5-0.56 15.4-1.67 22-2.46 6.6-0.8 13.35-1.7 15-2.02 1.65-0.32 5.03-0.95 7.5-1.4 2.47-0.45 8.1-1.5 12.5-2.33 4.4-0.83 11.15-2.23 15-3.11 3.85-0.88 11.72-3.01 17.5-4.73 5.78-1.72 17.03-5.61 25-8.64 7.97-3.03 19.9-8.28 26.5-11.68 6.6-3.4 16.28-8.78 21.5-11.95 5.22-3.18 12.64-8.09 16.49-10.92 3.84-2.83 11.04-8.49 16-12.58 4.95-4.09 12.77-11.06 17.36-15.5 4.6-4.44 11.85-12.12 16.11-17.07 4.27-4.95 11.31-13.8 15.65-19.67 4.34-5.87 8.79-12.15 9.89-13.96 1.1-1.82 2.85-4.67 3.9-6.34 1.04-1.66 4.09-7.08 6.78-12.03 2.69-4.95 6.39-12.15 8.21-16 1.82-3.85 4.69-10.15 6.39-14 1.69-3.85 4.64-11.05 6.54-16 1.91-4.95 4.82-13.5 6.47-19 1.66-5.5 3.25-11.13 3.54-12.5 0.3-1.38 1.88-7.45 3.52-13.5 1.65-6.05 3.31-13.25 3.7-16 0.39-2.75 0.87-5.9 1.08-7 0.21-1.1 1.03-5.83 1.82-10.5 0.8-4.67 1.9-12.1 2.45-16.5 0.54-4.4 1.26-10.7 1.6-14 0.33-3.3 0.78-7.13 0.98-8.5 0.21-1.38 0.85-7.45 1.42-13.5 0.57-6.05 1.28-14.38 1.57-18.5 0.3-4.13 1.23-19.88 2.09-35 1.33-23.7 1.56-73.57 1.69-360.5 0.08-183.15-0.18-357.52-0.57-387.5-0.38-29.98-0.96-58.77-1.27-64-0.31-5.23-1.65-22.77-2.99-39-1.33-16.23-2.91-32.88-3.49-37-0.59-4.13-2.42-15.83-4.08-26-1.65-10.18-3.91-22.33-5.02-27-1.1-4.68-3.77-14.8-5.94-22.5-2.17-7.7-5.79-18.95-8.05-25-2.27-6.05-7.47-18.43-11.56-27.5-4.09-9.08-9.71-20.55-12.5-25.5-2.78-4.95-9.84-16.19-15.67-24.97-5.84-8.79-14.36-20.49-18.95-26-4.59-5.52-12.02-14.04-16.5-18.93-4.49-4.9-12.88-13.18-18.66-18.41-5.78-5.22-16.8-14.2-24.5-19.95-7.7-5.75-19.85-14.08-27-18.52-7.15-4.43-20.42-11.71-29.5-16.17-9.08-4.46-22.58-10.43-30-13.25-7.42-2.83-18.9-6.78-25.5-8.79-6.6-2.02-18.97-5.24-27.5-7.16-8.53-1.93-26.08-5.07-39-6.97-12.92-1.91-27.33-3.92-32-4.49-4.67-0.56-15.92-1.75-25-2.64-14.93-1.47-59.75-1.64-472.5-1.8-250.8-0.1-461.85 0.2-469 0.66z"/>
		<path id="Path 2" fill-rule="evenodd" class="s1" d="m1304.5 316.11c2.75-0.05 6.75 0.24 12.79 1.39l-0.59 8.5c-0.32 4.67-1.99 15.92-3.7 25-1.71 9.07-4.64 22.57-6.51 30-1.87 7.42-5.26 19.35-7.54 26.5-2.28 7.15-6.41 18.62-9.18 25.5-2.76 6.87-9.2 21.05-14.31 31.5-5.11 10.45-13.51 25.98-18.67 34.5-5.15 8.52-14.28 22.7-20.27 31.5-5.99 8.8-14.74 21.17-19.44 27.5-4.7 6.33-12.11 15.77-16.48 21-4.36 5.23-13.66 15.8-20.66 23.5-7 7.7-18.74 19.87-26.08 27.05-7.35 7.17-18.76 17.76-25.36 23.52-6.6 5.76-17.4 14.79-24 20.06-6.6 5.27-18.97 14.31-27.5 20.09-8.53 5.78-20.22 13.35-26 16.82-5.78 3.48-17.25 9.57-25.5 13.54-8.25 3.98-22.87 10.14-32.5 13.7-9.62 3.55-21.1 7.64-33.5 11.67l-4.64 7.78c-2.55 4.27-6.2 10.92-8.11 14.77-1.91 3.85-4.63 9.92-6.05 13.5-1.42 3.58-3.74 10.77-5.15 16-1.42 5.23-3.53 14.9-4.7 21.5-1.35 7.6-2.17 16.64-2.24 24.66-0.06 6.96 0.23 13.04 0.64 13.5 0.42 0.46 8.52-2.04 18-5.57 9.49-3.52 28.27-10.2 41.75-14.82 13.48-4.63 33.73-11.56 45-15.39 11.28-3.84 26.8-8.8 34.5-11.02 7.7-2.21 21.2-5.58 30-7.47 8.8-1.89 16.9-4.03 18-4.77 1.1-0.73 4.7-4.83 8-9.1 3.3-4.26 12.13-15.47 19.62-24.89 7.49-9.42 18.74-22.97 25-30.1 6.26-7.14 18.58-20.2 27.38-29.02 8.8-8.83 22.75-21.42 31-27.99 8.25-6.58 15.43-12.64 15.96-13.49 0.52-0.84 2.79-6.03 5.04-11.53 2.25-5.5 6.24-14.05 8.88-19 2.63-4.95 7.3-12.83 10.36-17.5 3.06-4.67 9.63-13.67 14.58-20 4.96-6.33 12.88-16 17.6-21.49 4.72-5.49 12.92-14.49 18.22-20 5.3-5.51 13.62-13.89 18.5-18.63 4.87-4.74 13.36-12.55 18.86-17.35 5.5-4.8 15.4-12.88 22-17.95 6.6-5.07 14.92-11.23 18.5-13.68 3.58-2.45 11.22-7.42 17-11.04 5.78-3.62 15-9.19 20.5-12.39 5.5-3.2 15.17-8.38 21.5-11.51 6.33-3.14 17.8-8.41 25.5-11.72 7.7-3.31 22.1-8.79 32-12.18 9.9-3.39 24.97-7.92 33.5-10.06 8.53-2.15 23.15-5.49 32.5-7.43 9.35-1.94 22.63-4.43 29.5-5.52 6.88-1.09 19.7-2.73 28.5-3.64 12.51-1.3 21.46-1.53 41-1.06 15.84 0.37 30.68 1.33 40.5 2.6 8.53 1.11 19.1 2.74 23.5 3.63 4.4 0.88 12.72 2.94 18.5 4.57 5.78 1.63 10.92 3.17 11.42 3.43 0.53 0.26 0.17 2.74-0.82 5.69-0.96 2.88-4.18 10.18-7.15 16.23-2.96 6.05-7.54 14.62-10.17 19.04-2.63 4.42-7.44 11.85-10.7 16.5-3.26 4.65-8.64 11.83-11.96 15.96-3.32 4.12-10.61 12.67-16.2 19-5.58 6.33-16.4 17.38-24.03 24.57-7.64 7.19-15.69 14.66-17.89 16.61-2.2 1.95-11.42 9.27-20.5 16.28-9.08 7.01-23.7 17.58-32.5 23.48-8.8 5.9-22.75 14.59-31 19.31-8.25 4.72-21.75 11.82-30 15.79-8.25 3.96-21.3 9.88-29 13.15-7.7 3.27-19.62 7.99-26.5 10.48-6.87 2.48-19.7 6.91-28.5 9.83-8.8 2.93-20.72 6.69-26.5 8.36-5.78 1.67-17.7 4.82-26.5 7.01-8.8 2.19-19.6 4.68-24 5.53-4.4 0.85-14.3 2.44-22 3.52-7.7 1.08-20.53 2.76-28.5 3.73-9.55 1.15-21.67 1.75-35.5 1.75-15.47 0.01-23.9-0.46-32-1.79-6.05-0.99-12.8-2.05-15-2.36-3.72-0.52-4.59-0.11-12.5 5.83-4.67 3.51-12.1 9.51-16.5 13.34-4.4 3.83-13.86 12.83-21.03 20.02-7.17 7.18-17 18.01-21.85 24.06-4.84 6.05-12.96 17.3-18.03 25-5.07 7.7-10.2 15.69-11.41 17.75-1.2 2.06-2.17 4.09-2.16 4.5 0.01 0.41 2.15 0.4 4.75-0.03 2.6-0.43 10.81-1.66 18.23-2.73 7.42-1.08 25.88-3.29 41-4.92 15.13-1.63 36.95-3.63 48.5-4.45 11.55-0.82 32.92-1.76 74-2.71l15.5-5.93c8.53-3.26 21.58-7.72 29-9.91 7.42-2.19 18.67-5.11 25-6.48 6.33-1.37 17.58-3.61 25-4.98 7.42-1.37 21.6-3.28 31.5-4.24 12.34-1.2 26.34-1.73 44.5-1.69 17.89 0.04 31.54 0.62 42 1.77 8.53 0.94 23.83 3.27 34 5.19 10.17 1.91 22.55 4.61 27.5 5.99 4.95 1.39 14.63 4.34 21.5 6.57 6.88 2.22 17.9 6.2 24.5 8.84 6.6 2.64 18.3 7.68 26 11.2 7.7 3.52 21.54 10.76 30.75 16.08 9.21 5.33 20.69 12.21 25.5 15.31 4.81 3.09 14.15 9.49 20.75 14.22 6.6 4.73 15.15 11.08 19 14.11 3.85 3.03 11.5 9.42 17 14.19 5.5 4.77 16.37 15.12 24.15 23.01 7.79 7.89 17.15 17.71 20.8 21.84 3.65 4.12 8.87 10.76 11.59 14.75 2.73 3.99 4.96 7.92 4.96 8.75 0 0.86-2.67 2.75-6.25 4.44-3.44 1.61-10.53 4.6-15.75 6.63-5.22 2.03-14.67 5.46-21 7.62-6.33 2.16-18.47 5.7-27 7.85-8.53 2.16-20.9 4.82-27.5 5.91-6.6 1.09-17.17 2.56-23.5 3.26-7.39 0.81-25.09 1.25-49.5 1.22-28.61-0.03-41.46-0.45-52-1.68-7.7-0.9-21.2-2.82-30-4.27-8.8-1.44-20.05-3.48-25-4.53-4.95-1.05-13.28-2.83-18.5-3.95-5.22-1.13-15.35-3.64-22.5-5.58-7.15-1.94-17.28-4.92-22.5-6.61-5.22-1.7-17.83-6.37-28-10.37-10.17-4.01-23.22-9.28-29-11.71-5.78-2.43-16.58-7.47-24-11.2-7.42-3.73-18.45-9.69-24.5-13.25-6.05-3.56-13.92-8.33-17.5-10.6-3.58-2.27-11.45-7.77-17.5-12.22-6.05-4.45-15.05-11.5-20-15.67-4.95-4.17-12.83-11.57-17.51-16.44-4.69-4.87-10.15-10.87-15.77-17.85l-9.86 0.24c-5.42 0.14-22.23 1.39-37.36 2.79-15.12 1.4-31.55 2.98-36.5 3.51-4.95 0.54-15.53 1.91-23.5 3.04-7.97 1.13-19.67 2.89-26 3.92-6.33 1.03-21.17 3.5-33 5.5-11.83 1.99-27.8 4.95-35.5 6.57-7.7 1.63-20.75 4.77-29 6.99-8.25 2.22-20.62 5.87-27.5 8.12-6.87 2.24-15.99 5.36-20.25 6.95-4.26 1.58-7.75 3.43-7.75 4.12 0 0.69 5.51 5.3 12.24 10.25 6.9 5.07 17.71 14.45 24.78 21.5 6.9 6.87 15.23 16.1 18.51 20.5 3.28 4.4 8.69 12.5 12 18 3.32 5.5 8.23 15.17 10.9 21.5 2.67 6.33 6.57 16.9 8.65 23.5 2.09 6.6 5.41 17.85 7.39 25 1.97 7.15 4.82 15 6.31 17.44 1.5 2.44 4.07 5.23 5.72 6.19 1.98 1.16 6.22 1.96 12.5 2.38 5.22 0.34 14 1.28 19.5 2.07 5.5 0.8 15.17 2.85 21.5 4.55 6.33 1.7 14.88 4.44 19 6.08 4.13 1.64 10.2 4.36 13.5 6.03 3.3 1.67 10.05 5.49 15 8.49 4.95 3 13.28 8.66 18.5 12.57 5.22 3.92 14.72 12.31 21.1 18.66 6.38 6.35 14.71 15.45 18.5 20.24 3.8 4.78 10.56 14.46 15.04 21.5 4.48 7.04 10.89 17.75 14.26 23.8 3.36 6.05 8.2 15.95 10.75 22 2.55 6.05 6.55 16.4 8.89 23 2.34 6.6 6.05 18.97 8.26 27.5 2.2 8.53 4.92 20 6.05 25.5 1.13 5.5 2.55 13.15 3.17 17 0.62 3.85 1.79 12.17 2.6 18.5 0.83 6.48 1.73 24.38 2.04 41 0.45 23.47 0.22 32.97-1.12 46.5-0.92 9.35-2.79 23.53-4.16 31.5-1.36 7.97-4.29 21.7-6.51 30.5-2.22 8.8-5.4 20.28-7.08 25.5-1.68 5.22-5.44 15.12-8.36 22-2.92 6.87-7.52 16.55-10.22 21.5-2.7 4.95-6.83 12.15-9.19 16-2.36 3.85-7.97 11.95-12.47 18-4.49 6.05-12.19 15.22-17.11 20.38-4.92 5.16-12.31 12.19-16.44 15.62-4.12 3.43-11.78 9.03-17 12.46-5.22 3.43-13.55 8.2-18.5 10.6-4.95 2.4-13.72 5.93-19.5 7.84-5.78 1.92-15.22 4.44-21 5.61-5.78 1.17-15.67 2.38-22 2.69-6.33 0.31-16.11 0.05-21.75-0.57-5.64-0.62-13.74-1.83-18-2.69-4.26-0.86-12.47-3.14-18.25-5.06-5.78-1.93-15.45-5.9-21.5-8.83-6.05-2.93-16.4-8.9-23-13.26-6.6-4.36-16.05-11.31-21-15.45-4.95-4.13-14.37-13.1-20.94-19.93-6.57-6.82-15.13-16.69-19.02-21.91-3.89-5.22-9.61-13.33-12.71-18-3.1-4.67-8.46-13.67-11.9-20-3.45-6.33-9.17-17.58-12.71-25-3.54-7.42-8.35-18.45-10.7-24.5-2.34-6.05-6.29-17.75-8.78-26-2.49-8.25-5.02-17.03-5.63-19.5-0.6-2.47-1.79-7.65-2.66-11.5-0.86-3.85-2.62-12.63-3.92-19.5-1.29-6.88-3.12-19.25-4.06-27.5-1.05-9.17-1.77-23.55-1.84-37-0.07-12.1 0.22-27.4 0.66-34 0.43-6.6 1.43-16.28 2.22-21.5 0.79-5.22 2.53-14.9 3.87-21.5 1.35-6.6 3.19-14.92 4.09-18.5 0.9-3.58 3.16-11.22 5.02-17 1.86-5.78 5.67-16.13 8.47-23 2.79-6.88 8.29-18.35 12.2-25.5 3.92-7.15 9.4-16.38 12.18-20.5 2.78-4.13 7.92-11.33 11.42-16 3.51-4.67 10.96-13.41 16.56-19.41 5.6-6 14.74-14.55 20.3-19 5.57-4.45 13.9-10.35 18.5-13.11 4.61-2.76 13.1-6.9 18.88-9.21 9.17-3.66 10.69-4.61 12-7.48 1.1-2.4 1.47-6.53 1.37-15.29-0.06-6.6-0.61-15.15-1.21-19-0.6-3.85-2.24-11.05-3.65-16-1.42-4.95-4-12.6-5.76-17-1.75-4.4-6.31-12.73-10.13-18.5-4.67-7.07-10.4-13.91-17.53-20.93-6.53-6.44-14.62-13.11-21.09-17.4-5.78-3.83-15.9-9.56-22.5-12.72-6.6-3.17-15.15-6.7-19-7.84-3.85-1.14-9.02-2.08-11.5-2.08-2.48 0-7.2 0.72-10.5 1.59-3.3 0.87-11.17 3.52-17.5 5.89-6.33 2.38-14.87 5.75-19 7.5-4.12 1.75-13.58 5.92-21 9.27-7.42 3.35-20.25 9.43-28.5 13.51-8.25 4.09-20.4 10.36-27 13.96-6.6 3.59-16.05 8.79-21 11.56-4.95 2.77-17.1 9.74-27 15.49-9.9 5.76-22.05 12.95-27 15.99-4.95 3.04-19.12 12.05-31.5 20.02-12.37 7.97-27.45 17.87-33.5 22-6.05 4.12-15.95 10.89-22 15.03-6.05 4.14-20.67 14.27-32.5 22.51-11.83 8.24-27.35 19.27-34.5 24.5-7.15 5.23-16.15 11.84-20 14.69-3.85 2.84-18.7 13.87-33 24.49-14.3 10.63-34.77 26.08-45.5 34.33-10.73 8.25-22.65 17.55-26.5 20.66-3.85 3.11-14.87 11.91-24.5 19.56-9.62 7.65-20.93 16.84-25.13 20.42-4.19 3.57-12.29 10.32-18 14.98-5.7 4.67-22.52 18.89-37.37 31.6-14.85 12.71-34.2 29.76-43 37.89-8.8 8.14-18.7 16.64-22 18.91-5.87 4.03-6.18 4.12-14.5 4.12-7.43 0-9.06-0.34-13-2.68-2.48-1.48-5.87-4.4-7.55-6.5-1.68-2.1-4.04-6.18-5.25-9.07-1.57-3.75-2.23-7.46-2.3-13-0.07-5.09 0.44-9.04 1.5-11.5 0.88-2.06 3.34-5.66 5.47-8 2.14-2.34 8.32-7.84 13.75-12.23 5.44-4.39 15.06-12.29 21.38-17.54 6.32-5.26 18.25-14.95 26.5-21.54 8.25-6.59 16.57-13.18 18.5-14.65 1.93-1.48 7.55-5.88 12.5-9.79 4.95-3.92 12.15-9.53 16-12.47 3.85-2.95 11.57-8.89 17.15-13.2 5.59-4.3 17.51-13.43 26.5-20.28 8.99-6.85 20.62-15.68 25.85-19.61 5.23-3.93 24.8-18.6 43.5-32.59 18.7-13.99 37.83-28.1 42.5-31.35 4.67-3.26 14.8-10.41 22.5-15.89 7.7-5.48 23.9-16.77 36-25.09 12.1-8.32 26.5-18.06 32-21.65 5.5-3.58 14.5-9.35 20-12.82 5.5-3.46 18.1-11.58 28-18.05 9.9-6.46 24.98-16.22 33.5-21.7 8.52-5.47 20.23-12.82 26-16.32 5.77-3.51 15.23-9.35 21-12.99 5.77-3.63 18.83-11.36 29-17.17 10.17-5.81 28.17-15.63 40-21.82 11.83-6.19 27.01-14.12 46-24v-14.25c0-7.84 0.47-18.08 1.04-22.75 0.58-4.67 2.35-13.9 3.94-20.5 1.58-6.6 4.51-16.5 6.5-22 1.99-5.5 5.25-13.6 7.24-18 1.99-4.4 6.53-13.4 16.57-32l-1.17-10c-0.64-5.5-1.39-11.8-1.67-14-0.28-2.2-0.05-10.52 0.5-18.5 0.55-7.98 2.18-21.48 3.62-30 1.44-8.52 3.71-19.77 5.05-25 1.35-5.23 3.84-13.77 5.54-19 1.7-5.23 5.54-15.8 8.54-23.5 2.99-7.7 7.54-18.73 10.11-24.5 2.57-5.77 7.64-16.35 11.27-23.5 3.64-7.15 9.46-17.95 12.94-24 3.48-6.05 9.91-16.4 14.31-23 4.39-6.6 12.26-17.63 17.5-24.5 5.23-6.88 12.92-16.32 17.09-20.99 4.17-4.66 12.53-13.45 18.58-19.51 6.05-6.07 17.08-16.24 24.5-22.6 7.42-6.37 18.9-15.62 25.5-20.57 6.6-4.95 16.72-12.17 22.5-16.05 5.78-3.89 16.8-10.77 24.5-15.29 7.7-4.53 20.75-11.61 29-15.74 8.25-4.12 19.5-9.51 25-11.95 5.5-2.45 14.05-5.98 19-7.83 4.95-1.86 12.6-4.5 17-5.88 4.4-1.37 12.72-3.62 18.5-5.01 5.78-1.39 15.22-3.16 21-3.95 5.78-0.78 12.75-1.47 15.5-1.52zm-79.45 643.89c3.82 0 9.99 0.65 13.7 1.45 3.71 0.79 10.8 2.62 15.75 4.06 4.95 1.45 14.17 4.65 20.5 7.11 6.33 2.47 15.33 6.56 20 9.08 4.67 2.53 10.75 6.1 18.5 11.28l7.5-1.69c5.62-1.26 12.38-1.69 27-1.7 17.6-0.02 20.67 0.24 31.5 2.68 6.6 1.49 17.85 4.59 25 6.9 7.3 2.35 19.35 7.38 27.5 11.46 7.97 3.99 20.13 10.95 27 15.46 6.88 4.51 15.65 10.71 19.5 13.79 3.85 3.07 10.38 8.46 14.5 11.98 4.13 3.51 11.55 10.34 16.5 15.16 4.95 4.83 12.16 12.08 16.02 16.13 3.87 4.04 10.79 12.07 15.39 17.85 4.6 5.78 11.55 15 15.46 20.5 3.9 5.5 10.63 15.63 14.96 22.5 4.32 6.88 12.91 22.63 19.09 35 6.17 12.38 13.16 27.45 15.53 33.5 2.37 6.05 6.32 17.3 8.76 25 2.45 7.7 6.62 22.55 9.26 33 2.65 10.45 5.53 23.28 6.4 28.5 0.87 5.22 2.35 15.13 3.28 22 1.16 8.59 1.69 19.54 1.69 35 0.01 15.82-0.5 26.21-1.71 35-0.95 6.88-2.66 16.55-3.81 21.5-1.14 4.95-3.42 12.83-5.06 17.5-1.65 4.67-4.57 11.65-6.49 15.5-1.93 3.85-5.43 9.7-7.78 13-2.35 3.3-7.14 8.8-10.63 12.23-3.5 3.42-7.94 7.39-9.86 8.83-1.92 1.43-5.97 3.86-9 5.4-3.03 1.54-9.1 3.97-13.5 5.4-4.4 1.43-10.92 3.05-14.5 3.61-3.58 0.56-9.99 1.02-14.25 1.02-4.26 0.01-11.01-0.46-15-1.04-3.99-0.58-11.75-2.13-17.25-3.45-5.5-1.31-14.72-4.04-20.5-6.05-5.78-2.02-13.87-5.33-18-7.37-4.12-2.03-10.87-5.87-15-8.53-4.12-2.66-10.87-7.41-15-10.54-4.12-3.14-10.16-8.59-13.41-12.11-3.25-3.52-6.51-7.3-7.24-8.4-1.15-1.71-0.92-4.24 1.59-17.5 1.62-8.53 3.44-19.1 4.04-23.5 0.61-4.4 1.38-20.15 1.7-35 0.37-16.94 0.14-33.89-0.62-45.5-0.67-10.17-2.29-26.37-3.6-36-1.32-9.62-3.77-24.03-5.46-32-1.68-7.97-3.98-17.87-5.09-22-1.12-4.12-4.97-15.37-8.56-25-3.58-9.62-8.37-21.78-10.63-27-2.27-5.22-5.65-12.42-7.52-16-1.86-3.58-5.23-9.87-7.47-14-2.24-4.12-7.43-12.67-11.54-19-4.11-6.33-9.79-14.65-12.64-18.5-2.85-3.85-9.34-11.72-14.43-17.5-5.09-5.78-11.82-12.9-14.94-15.84-3.12-2.94-9.44-8.56-14.03-12.5-4.6-3.94-10.67-8.9-13.5-11.02-2.83-2.13-10-7.08-15.92-11-5.93-3.93-10.76-7.7-10.75-8.39 0.01-0.69 1.65-3.39 3.64-6 1.98-2.61 6.15-7.38 9.25-10.6 3.09-3.22 7.99-7.61 10.88-9.75 2.89-2.15 5.27-4.24 5.29-4.65 0.02-0.41-5.72-3.62-12.75-7.12-7.04-3.51-17.07-8.07-22.29-10.15-5.22-2.07-16.92-6.31-26-9.42-9.08-3.11-17.1-6.2-17.83-6.86-0.8-0.72-1.08-2.1-0.7-3.45 0.58-2.06 1.24-2.25 7.58-2.25z"/>
		<path id="Path 3" class="s0" d="m1186.37 429.29c-0.62 0.66-7.37 6.92-15 13.89-7.63 6.97-19.05 18-25.39 24.5-6.33 6.5-14.66 15.39-18.5 19.74-3.84 4.36-7.86 9.08-8.95 10.5-1.08 1.42-2.21 2.81-2.52 3.08-0.3 0.27-3.75 4.55-7.65 9.5-3.9 4.95-11.05 14.62-15.89 21.5-4.85 6.87-11.14 15.87-14 20-2.86 4.12-10.59 16.5-17.18 27.5-6.59 11-14.92 25.17-18.52 31.5-3.59 6.33-9.76 18.02-13.7 26l-7.16 14.5c10.24-10.85 18.92-20.96 25.9-29.47 6.98-8.5 15.62-19.32 19.19-24.03 3.58-4.71 9.84-13.05 13.93-18.53 4.08-5.48 11.1-14.92 15.59-20.97 4.49-6.05 16.47-22.7 26.62-37 10.16-14.3 20.69-29.12 23.41-32.94 2.72-3.82 7.52-10.57 10.66-15 3.15-4.43 10.31-14.81 15.93-23.06 5.61-8.25 11.46-16.69 13.01-18.75 1.54-2.06 2.47-3.73 2.07-3.71-0.39 0.02-1.23 0.58-1.85 1.25zm425.13 57.82c-6.6 1.63-18.52 5.02-26.5 7.54-7.97 2.51-21.02 6.96-29 9.89-7.97 2.92-21.25 8.23-29.5 11.78-8.25 3.56-19.72 8.67-25.5 11.36-5.77 2.69-18.15 8.79-27.5 13.56-9.35 4.76-25.55 13.55-36 19.53-10.45 5.98-24.17 14.16-30.5 18.17-6.32 4.02-17.51 11.64-24.85 16.93-7.35 5.3-16.35 11.78-20 14.4-3.66 2.62-6.09 4.76-5.4 4.75 0.69-0.01 4.06-1.19 7.5-2.62 3.44-1.43 13.23-5.65 21.75-9.39 8.53-3.74 19.1-8.47 23.5-10.53 4.4-2.06 19.03-9.1 32.5-15.67 13.48-6.56 32.15-15.59 41.5-20.07 9.35-4.48 36.58-18.01 60.5-30.08 23.93-12.06 48.23-24.52 54-27.68 5.78-3.16 14.21-7.6 18.75-9.86 4.54-2.27 8.25-4.35 8.25-4.62 0-0.28-0.34-0.47-0.75-0.42-0.41 0.04-6.15 1.41-12.75 3.03zm-175.5 327.39c0 0.27 5.51 2.27 12.25 4.43 6.74 2.16 17.88 5.51 24.75 7.45 6.88 1.93 20.6 5.53 30.5 8 9.9 2.46 21.38 5.23 25.5 6.16 4.13 0.93 22.35 5.25 40.5 9.62 18.15 4.36 46.28 11.32 62.5 15.46 16.23 4.14 33.55 8.65 38.5 10.01 4.95 1.37 17.1 4.74 27 7.49 9.9 2.75 18.08 4.86 18.19 4.69 0.1-0.17-2.6-1.82-6-3.66-3.41-1.85-11.36-5.96-17.69-9.15-6.32-3.19-18.47-8.72-27-12.3-8.52-3.58-22.25-9.07-30.5-12.19-8.25-3.11-19.95-7.03-26-8.7-6.05-1.68-15.05-4.12-20-5.44-4.95-1.32-12.15-3.28-16-4.36-3.85-1.08-11.5-2.85-17-3.94-5.5-1.08-15.85-2.91-23-4.07-7.15-1.15-20.65-3.21-30-4.59-9.35-1.37-24.87-3.14-34.5-3.93-9.62-0.79-20.76-1.45-24.75-1.46-3.99-0.01-7.25 0.21-7.25 0.48z"/>
	</g>
</svg>